<svg width="86" height="30" viewBox="0 0 86 30" fill="none" xmlns="http://www.w3.org/2000/svg">
<path d="M0 29.4886V0.397728H12.6136C14.8295 0.397728 16.6903 0.696024 18.196 1.29262C19.7112 1.88921 20.8523 2.73201 21.6193 3.82102C22.3958 4.91004 22.7841 6.19318 22.7841 7.67046C22.7841 8.74053 22.5473 9.71591 22.0739 10.5966C21.6098 11.4773 20.9564 12.2159 20.1136 12.8125C19.2708 13.3996 18.286 13.8068 17.1591 14.0341V14.3182C18.4091 14.3655 19.5455 14.6828 20.5682 15.2699C21.5909 15.8475 22.4053 16.6477 23.0114 17.6705C23.6174 18.6837 23.9205 19.8769 23.9205 21.25C23.9205 22.8409 23.5038 24.2566 22.6705 25.4972C21.8466 26.7377 20.6723 27.7131 19.1477 28.4233C17.6231 29.1335 15.8049 29.4886 13.6932 29.4886H0ZM7.89773 23.1818H11.5909C12.9167 23.1818 13.911 22.9356 14.5739 22.4432C15.2367 21.9413 15.5682 21.2027 15.5682 20.2273C15.5682 19.5455 15.4119 18.9678 15.0994 18.4943C14.7869 18.0208 14.3419 17.661 13.7642 17.4148C13.196 17.1686 12.5095 17.0455 11.7045 17.0455H7.89773V23.1818ZM7.89773 12.1591H11.1364C11.8277 12.1591 12.4384 12.0502 12.9688 11.8324C13.4991 11.6146 13.911 11.3021 14.2045 10.8949C14.5076 10.4782 14.6591 9.97159 14.6591 9.375C14.6591 8.47538 14.3371 7.78883 13.6932 7.31534C13.0492 6.83239 12.2348 6.59091 11.25 6.59091H7.89773V12.1591Z" fill="#F6F4F4"/>
<path d="M34.2756 29.4886H25.7528L35.3551 0.397728H46.1506L55.7528 29.4886H47.2301L40.8665 8.40909H40.6392L34.2756 29.4886ZM32.6847 18.0114H48.7074V23.9205H32.6847V18.0114Z" fill="#F6F4F4"/>
<path d="M85.3693 14.9432C85.3693 18.1818 84.7396 20.9138 83.4801 23.1392C82.2206 25.3551 80.5208 27.036 78.3807 28.1818C76.2405 29.3182 73.8542 29.8864 71.2216 29.8864C68.5701 29.8864 66.1742 29.3134 64.0341 28.1676C61.9034 27.0123 60.2083 25.3267 58.9489 23.1108C57.6989 20.8854 57.0739 18.1629 57.0739 14.9432C57.0739 11.7045 57.6989 8.97727 58.9489 6.76137C60.2083 4.53599 61.9034 2.85511 64.0341 1.71875C66.1742 0.572917 68.5701 0 71.2216 0C73.8542 0 76.2405 0.572917 78.3807 1.71875C80.5208 2.85511 82.2206 4.53599 83.4801 6.76137C84.7396 8.97727 85.3693 11.7045 85.3693 14.9432ZM77.2443 14.9432C77.2443 13.2008 77.0123 11.733 76.5483 10.5398C76.0937 9.33712 75.4167 8.42803 74.517 7.8125C73.6269 7.1875 72.5284 6.875 71.2216 6.875C69.9148 6.875 68.8116 7.1875 67.9119 7.8125C67.0218 8.42803 66.3447 9.33712 65.8807 10.5398C65.4261 11.733 65.1989 13.2008 65.1989 14.9432C65.1989 16.6856 65.4261 18.1581 65.8807 19.3608C66.3447 20.554 67.0218 21.4631 67.9119 22.0881C68.8116 22.7036 69.9148 23.0114 71.2216 23.0114C72.5284 23.0114 73.6269 22.7036 74.517 22.0881C75.4167 21.4631 76.0937 20.554 76.5483 19.3608C77.0123 18.1581 77.2443 16.6856 77.2443 14.9432Z" fill="#F6F4F4"/>
</svg>
