<svg width="66" height="23" viewBox="0 0 66 23" fill="none" xmlns="http://www.w3.org/2000/svg">
<path d="M0 22.6939V0.306084H9.75175C11.4649 0.306084 12.9035 0.535648 14.0676 0.994774C15.2389 1.4539 16.1211 2.1025 16.7141 2.94059C17.3145 3.77868 17.6146 4.76616 17.6146 5.90304C17.6146 6.72655 17.4316 7.47719 17.0656 8.15494C16.7068 8.8327 16.2017 9.40114 15.5501 9.86027C14.8985 10.3121 14.1371 10.6255 13.2659 10.8004V11.019C14.2323 11.0554 15.1108 11.2996 15.9015 11.7514C16.6922 12.196 17.3218 12.8118 17.7903 13.5989C18.2589 14.3786 18.4932 15.2969 18.4932 16.3536C18.4932 17.5779 18.171 18.6675 17.5268 19.6221C16.8898 20.5768 15.982 21.3275 14.8033 21.874C13.6246 22.4206 12.219 22.6939 10.5864 22.6939H0ZM6.10582 17.8403H8.96106C9.98602 17.8403 10.7547 17.6508 11.2672 17.2719C11.7797 16.8856 12.0359 16.3172 12.0359 15.5665C12.0359 15.0418 11.9151 14.5973 11.6735 14.2329C11.4319 13.8685 11.0879 13.5916 10.6413 13.4021C10.202 13.2126 9.67121 13.1179 9.04892 13.1179H6.10582V17.8403ZM6.10582 9.35741H8.60965C9.14409 9.35741 9.61631 9.27361 10.0263 9.10599C10.4363 8.93837 10.7547 8.69788 10.9817 8.38451C11.216 8.06385 11.3331 7.67395 11.3331 7.21483C11.3331 6.5225 11.0842 5.99414 10.5864 5.62975C10.0885 5.25808 9.4589 5.07224 8.6975 5.07224H6.10582V9.35741Z" fill="#6A5858"/>
<path d="M26.4988 22.6939H19.9098L27.3334 0.306084H35.6795L43.1032 22.6939H36.5141L31.5943 6.47148H31.4186L26.4988 22.6939ZM25.2689 13.8612H37.6562V18.4087H25.2689V13.8612Z" fill="#6A5858"/>
<path d="M66 11.5C66 13.9924 65.5131 16.0949 64.5394 17.8075C63.5657 19.5128 62.2516 20.8064 60.597 21.6882C58.9424 22.5627 57.0975 23 55.0622 23C53.0123 23 51.1601 22.5591 49.5055 21.6773C47.8582 20.7882 46.5477 19.491 45.574 17.7856C44.6076 16.073 44.1245 13.9778 44.1245 11.5C44.1245 9.0076 44.6076 6.90875 45.574 5.20342C46.5477 3.49081 47.8582 2.19724 49.5055 1.32272C51.1601 0.440906 53.0123 0 55.0622 0C57.0975 0 58.9424 0.440906 60.597 1.32272C62.2516 2.19724 63.5657 3.49081 64.5394 5.20342C65.5131 6.90875 66 9.0076 66 11.5ZM59.7185 11.5C59.7185 10.1591 59.5391 9.02947 59.1804 8.11122C58.8289 7.18568 58.3055 6.48606 57.61 6.01236C56.9218 5.53137 56.0725 5.29087 55.0622 5.29087C54.0519 5.29087 53.199 5.53137 52.5035 6.01236C51.8153 6.48606 51.2918 7.18568 50.9331 8.11122C50.5817 9.02947 50.406 10.1591 50.406 11.5C50.406 12.8409 50.5817 13.9742 50.9331 14.8997C51.2918 15.818 51.8153 16.5176 52.5035 16.9986C53.199 17.4723 54.0519 17.7091 55.0622 17.7091C56.0725 17.7091 56.9218 17.4723 57.61 16.9986C58.3055 16.5176 58.8289 15.818 59.1804 14.8997C59.5391 13.9742 59.7185 12.8409 59.7185 11.5Z" fill="#6A5858"/>
</svg>
